{"title":"March Of The Penguins-720p MP4 AAC x264 HDDVD 2005-CC","uid":7541676,"size":2493214733,"categoryP":"video","categoryS":"hd___movies","magnet":"?xt=urn:btih:8405995a77a045faaf44b728f6edfa89b4f1fd2f&amp;dn=March+Of+The+Penguins-720p+MP4+AAC+x264+HDDVD+2005-CC&amp;tr=udp%3A%2F%2Ftracker.openbittorrent.com%3A80&amp;tr=udp%3A%2F%2Fopen.demonii.com%3A1337&amp;tr=udp%3A%2F%2Ftracker.coppersurfer.tk%3A6969&amp;tr=udp%3A%2F%2Fexodus.desync.com%3A6969","seeders":1,"leechers":1,"uploader":"Caveman44","files":-1,"time":1345232541,"description":"AKA La marche de l'empereur\n &lt;a href=&quot;\nhttp://www.imdb.com/title/tt0428803/&quot; rel=&quot;nofollow&quot; target=&quot;_NEW&quot;&gt;\nhttp://www.imdb.com/title/tt0428803/&lt;/a&gt;\n\nSource: March.Of.The.Penguins.2005.DVD5.720p.HDDVD.x264-REVEiLLE Thanks!\n\nSubs: Arabic, Bulgarian, Danish, Dutch, English, Farsi-Persian, Finnish, Polish, Romanian and Spanish.\n\nSample and Screens included.\n\nGeneral\nComplete name                    : March Of The Penguins-720p MP4 AAC x264 HDDVD 2005-CC.mp4\nFormat                           : MPEG-4\nFormat profile                   : Base Media\nCodec ID                         : isom\nFile size                        : 2.29 GiB\nDuration                         : 1h 20mn\nOverall bit rate                 : 4 092 Kbps\nEncoded date                     : UTC 2012-08-11 10:20:09\n\nVideo\nID                               : 1\nFormat                           : AVC\nFormat/Info                      : Advanced Video Codec\nFormat profile                   : &lt;a class=&quot;__cf_email__&quot; href=&quot;/cdn-cgi/l/email-protection&quot; data-cfemail=&quot;430b2a242b030f706d72&quot;&gt;[email&amp;#160;protected]&lt;/a&gt;&lt;script data-cfhash='f9e31' type=&quot;text/javascript&quot;&gt;\n/* &lt;![CDATA[ */!function(){try{var t=&quot;currentScript&quot;in document?document.currentScript:function(){for(var t=document.getElementsByTagName(&quot;script&quot;),e=t.length;e--;)if(t[e].getAttribute(&quot;data-cfhash&quot;))return t[e]}();if(t&amp;&amp;t.previousSibling){var e,r,n,i,c=t.previousSibling,a=c.getAttribute(&quot;data-cfemail&quot;);if(a){for(e=&quot;&quot;,r=parseInt(a.substr(0,2),16),n=2;a.length-n;n+=2)i=parseInt(a.substr(n,2),16)^r,e+=String.fromCharCode(i);e=document.createTextNode(e),c.parentNode.replaceChild(e,c)}t.parentNode.removeChild(t);}}catch(u){}}()/* ]]&gt; */&lt;/script&gt;\nFormat settings, CABAC           : Yes\nFormat settings, ReFrames        : 5 frames\nCodec ID                         : avc1\nCodec ID/Info                    : Advanced Video Coding\nDuration                         : 1h 20mn\nBit rate mode                    : Variable\nBit rate                         : 3 705 Kbps\nNominal bit rate                 : 3 757 Kbps\nMaximum bit rate                 : 31.3 Mbps\nWidth                            : 1 280 pixels\nHeight                           : 688 pixels\nDisplay aspect ratio             : 1.860\nFrame rate mode                  : Variable\nFrame rate                       : 23.976 fps\nMinimum frame rate               : 19.048 fps\nMaximum frame rate               : 24.390 fps\nResolution                       : 24 bits\nColorimetry                      : 4:2:0\nScan type                        : Progressive\nBits/(Pixel*Frame)               : 0.175\nStream size                      : 2.08 GiB (90%)\nWriting library                  : x264 core 112\n\nAudio\nID                               : 2\nFormat                           : AAC\nFormat/Info                      : Advanced Audio Codec\nFormat version                   : Version 4\nFormat profile                   : LC\nFormat settings, SBR             : No\nCodec ID                         : 40\nDuration                         : 1h 20mn\nBit rate mode                    : Variable\nBit rate                         : 384 Kbps\nMaximum bit rate                 : 539 Kbps\nChannel(s)                       : 6 channels\nChannel positions                : Front: L C R, Rear: L R, LFE\nSampling rate                    : 48.0 KHz\nResolution                       : 16 bits\nStream size                      : 220 MiB (9%)\n\n\nEnjoy...\n\nRequested by DreamExtractor.\n\nComing up soon: Snatch, The Manchurian Candidate, Before the Devil Knows Youre Dead, The Recruit....","torrent":{"xt":"urn:btih:8405995a77a045faaf44b728f6edfa89b4f1fd2f","amp;dn":"March+Of+The+Penguins-720p+MP4+AAC+x264+HDDVD+2005-CC","amp;tr":["udp%3A%2F%2Ftracker.openbittorrent.com%3A80","udp%3A%2F%2Fopen.demonii.com%3A1337","udp%3A%2F%2Ftracker.coppersurfer.tk%3A6969","udp%3A%2F%2Fexodus.desync.com%3A6969"],"infoHash":"8405995a77a045faaf44b728f6edfa89b4f1fd2f","infoHashBuffer":{"type":"Buffer","data":[132,5,153,90,119,160,69,250,175,68,183,40,246,237,250,137,180,241,253,47]},"announce":[],"urlList":[]}}